<?xml version="1.0" encoding="UTF-8"?>
<svg viewBox="0 0 195 367.7" xmlns="http://www.w3.org/2000/svg">
 <defs>
  <filter id="i" x="-.008135" y="-.15456" width="1.0163" height="1.3091">
   <feGaussianBlur stdDeviation="0.65052"/>
  </filter>
  <filter id="a">
   <feGaussianBlur stdDeviation="0.272631"/>
  </filter>
  <filter id="h" x="-.021159" y="-.12057" width="1.0423" height="1.2411">
   <feGaussianBlur stdDeviation="1.623281"/>
  </filter>
  <filter id="j" x="-.028462" y="-.15308" width="1.0569" height="1.3062">
   <feGaussianBlur stdDeviation="2.143056"/>
  </filter>
  <linearGradient id="l" x1="1.4394" x2=".000653" y1=".49279" y2=".49279">
   <stop stop-color="#fff" offset="0"/>
   <stop stop-color="#d4d4d4" stop-opacity=".278" offset="1"/>
  </linearGradient>
  <linearGradient id="k" x1=".879" x2=".85582" y1=".033757" y2=".67891">
   <stop stop-color="#fff" offset="0"/>
   <stop stop-color="#fff" stop-opacity="0" offset="1"/>
  </linearGradient>
  <radialGradient id="m" cx="159.04" cy="469.76" r="92.062" gradientTransform="matrix(1.2761 .032784 -.0076807 .29896 -40.299 248.42)" gradientUnits="userSpaceOnUse">
   <stop stop-color="#a4a0d6" stop-opacity=".744" offset="0"/>
   <stop stop-opacity="0" offset="1"/>
  </radialGradient>
 </defs>
 <path d="m7.6688 329.03c-0.57098 0.10959-0.47772 1.9869-0.45868 2.9349 0 6.056 0.27704 4.2297 1.6152 6.3876 1.3381 2.1578 3.2034 4.0562 5.5511 5.8878 4.6955 3.6632 11.34 6.8932 19.528 9.5951 16.376 5.4036 38.891 8.7228 63.772 8.7228s47.397-3.3192 63.772-8.7228c8.1878-2.7018 14.833-5.9318 19.528-9.5951 2.3477-1.8316 4.213-3.73 5.5512-5.8878 1.3381-2.1579 1.3193-2.4479 1.1962-7.2661 0.040405-1.0398 0.4596-2.128-0.17188-2.128-4.0105 12.482-15.23 17.078-26.566 21.115-16.153 5.3303-38.554 8.6682-63.31 8.6682s-47.157-3.338-63.31-8.6682c-8.0766-2.6651-14.599-5.8348-19-9.2679-4.7638-2.708-5.7098-7.6351-7.6989-11.776z" filter="url(#j)" opacity=".602" stroke-width="2.192"/>
 <path d="m1.5993 8.1861l4.4885 308.31" fill="none" stroke="#000" stroke-width=".485"/>
 <path d="m1.6068 8.1936l4.4735 328.8" fill="#0ff" opacity=".704" stroke="#ccc" stroke-width="2"/>
 <path d="m97.58 15.346c-52.902 0-95.812-3.1251-95.812-7 0-0.43964 0.60022-0.89529 1.6562-1.3125-0.4126 0.26435-0.65625 0.54003-0.65625 0.8125 0 3.8749 42.895 7.1562 95.797 7.1562 46.9 0 85.889-2.6148 94.141-5.875-5.4556 3.4954-45.943 6.2188-95.125 6.2188z"/>
 <g stroke-linecap="round" stroke-linejoin="round">
  <path d="m98.13 0.4927c52.902 0 95.812 3.1251 95.812 7 0 0.43963-0.60022 0.89528-1.6562 1.3125 0.4126-0.26436 0.65625-0.54006 0.65625-0.8125 0-3.8749-42.895-7.1562-95.797-7.1562-46.9 0-85.889 2.6148-94.141 5.875 5.4556-3.4954 45.943-6.2188 95.125-6.2188z" stroke="#fff" stroke-width=".25"/>
  <g fill="none" stroke-width="2">
   <path d="m193.36 8.1936c0 3.8749-42.885 7.0161-95.787 7.0161s-95.787-3.1412-95.787-7.0161 42.885-7.0161 95.787-7.0161 95.787 3.1412 95.787 7.0161z" opacity=".773" stroke="#ccc"/>
   <path d="m189.06 336.49c0 14.993-40.962 27.146-91.491 27.146s-91.491-12.154-91.491-27.146" stroke="#e6e6e6"/>
  </g>
 </g>
 <path d="m192.46 118.14c0 6.0534-42.513 10.961-94.955 10.961s-94.955-4.9072-94.955-10.961c0-6.0534 42.513-10.961 94.955-10.961s94.955 4.9072 94.955 10.961z" fill="#85ffff" stroke-width="1.358"/>
 <g fill="none" stroke="#000">
  <path d="m192.46 117.64c0 6.0534-42.513 10.961-94.955 10.961s-94.955-4.9072-94.955-10.961c0-6.0534 42.513-10.961 94.955-10.961s94.955 4.9072 94.955 10.961z" filter="url(#i)" opacity=".123" stroke-linecap="round" stroke-linejoin="round" stroke-width="1.365"/>
  <path d="m193.37 8.1864l-4.3174 308.53" stroke-width=".486"/>
 </g>
 <g stroke-width="2">
  <path d="m193.36 8.1936l-4.3029 328.3" fill="none" opacity=".843" stroke="#ccc"/>
  <path d="m97.585 304.02c-50.842 0-92.062 4.9266-92.062 11.031h0.3125c1.1882 11.791 41.814 21.281 91.75 21.281s90.53-9.4905 91.719-21.281h0.34375c0-6.1046-41.22-11.031-92.062-11.031z" fill="url(#m)" filter="url(#h)"/>
  <g fill="#d40000">
   <path d="m190.06 78.269c0.7804-0.7001 1.1454-1.438 1.6242-2.1655v2.3423c-0.62241-0.62603-1.1149-0.34288-1.6242-0.17676z" opacity=".102"/>
   <path d="m4.4622 78.523c-0.7804-0.7001-1.1454-1.438-1.6242-2.1655v2.3423c0.62244-0.62603 1.1149-0.34288 1.6242-0.17678z" opacity=".208"/>
  </g>
  <path d="m78.332 334.41c-37.303-1.6992-66.92-8.1395-71.076-15.651-1.4148-2.5562-0.76571-13.516-2.1405-100.42-0.8495-53.693-1.3316-100.01-1.0714-100.23 0.26028-0.21998 2.079 2.6249 4.1056 3.5277 9.1644 4.0852 42.992 6.3875 89.373 5.9924 47.635-0.40514 80.372-2.3551 88.882-5.9924 2.0441-0.87397 3.8275-3.8453 4.0656-3.6432 0.23817 0.20107-0.24309 46.782-1.0688 100.72-1.3621 89.022-0.056076 97.559-1.5432 99.794-6.7416 10.127-60.157 18.142-109.53 15.895z" fill="#00eded" fill-opacity=".684"/>
  <g transform="matrix(1.1864 0 0 1.1864 -101.07 -23.077)">
   <path d="m120.33 196.62c0 3.5898-2.9102 6.5-6.5 6.5s-6.5-2.9102-6.5-6.5c0-3.5899 2.9102-6.5 6.5-6.5s6.5 2.9101 6.5 6.5z" fill="#0ff" opacity=".644"/>
   <path d="m117.15 192.17c1.0903 2.1562-2.9971 1.5416-5.1534 2.6319-2.1562 1.0903-2.6898 5.3165-3.7802 3.1602-1.0903-2.1562 0.2113-5.8194 2.3676-6.9097s5.4756-1.0387 6.566 1.1176z" fill="#fff" filter="url(#a)" opacity=".644"/>
  </g>
  <g transform="matrix(.77049 0 0 .77049 185.13 21.128)" opacity=".912">
   <path d="m-125.49 189.45c0 3.5899-2.9102 6.5-6.5 6.5s-6.5-2.9102-6.5-6.5 2.9102-6.5 6.5-6.5 6.5 2.9101 6.5 6.5z" fill="#0ff" opacity=".644"/>
   <path d="m-128.66 185c1.0903 2.1562-2.9971 1.5416-5.1534 2.6319-2.1562 1.0903-2.6898 5.3165-3.7802 3.1602-1.0903-2.1562 0.2113-5.8194 2.3676-6.9097s5.4756-1.0387 6.566 1.1176z" fill="#fff" filter="url(#a)" opacity=".644"/>
  </g>
  <g transform="matrix(.69595 0 0 .69595 202.06 13.759)" opacity=".796">
   <path d="m-200.6 187.26c0 3.5898-2.9102 6.5-6.5 6.5s-6.5-2.9102-6.5-6.5c0-3.5899 2.9102-6.5 6.5-6.5s6.5 2.9101 6.5 6.5z" fill="#0ff" opacity=".644"/>
   <path d="m-203.77 182.81c1.0903 2.1562-2.9971 1.5416-5.1534 2.6319-2.1562 1.0903-2.6898 5.3165-3.7802 3.1602-1.0903-2.1562 0.2113-5.8194 2.3676-6.9097s5.4756-1.0387 6.566 1.1176z" fill="#fff" filter="url(#a)" opacity=".644"/>
  </g>
  <g transform="matrix(1.1864 0 0 1.1864 6.1403 -58.543)" opacity=".519">
   <path d="m120.33 196.62c0 3.5898-2.9102 6.5-6.5 6.5s-6.5-2.9102-6.5-6.5c0-3.5899 2.9102-6.5 6.5-6.5s6.5 2.9101 6.5 6.5z" fill="#0ff" opacity=".644"/>
   <path d="m117.15 192.17c1.0903 2.1562-2.9971 1.5416-5.1534 2.6319-2.1562 1.0903-2.6898 5.3165-3.7802 3.1602-1.0903-2.1562 0.2113-5.8194 2.3676-6.9097s5.4756-1.0387 6.566 1.1176z" fill="#fff" filter="url(#a)" opacity=".644"/>
  </g>
  <g transform="matrix(.3122 0 0 .3122 426.41 269.58)">
   <path d="m-1154.9 159.42c0 3.5899-2.9102 6.5-6.5 6.5s-6.5-2.9101-6.5-6.5c0-3.5898 2.9102-6.5 6.5-6.5s6.5 2.9102 6.5 6.5z" fill="#0ff" opacity=".644"/>
   <path d="m-1158 154.98c1.0903 2.1562-2.9971 1.5416-5.1533 2.6319s-2.6898 5.3165-3.7802 3.1602c-1.0902-2.1562 0.2113-5.8194 2.3676-6.9097 2.1562-1.0903 5.4756-1.0387 6.5659 1.1176z" fill="#fff" filter="url(#a)" opacity=".644"/>
  </g>
  <path d="m78.952 362.25c-38.069-3.2638-64.452-12.042-70.647-23.506-1.2867-2.3808-1.345-2.8522-1.5859-12.812-0.25037-10.354-0.082122-11.462 1.439-9.4743 3.2699 4.2724 15.343 9.3153 30.059 12.555 16.92 3.7254 35.653 5.4106 60.144 5.4106 22.902 0 38.528-1.2435 55.202-4.3927 15.572-2.9413 29.206-8.041 34.195-12.791 0.95206-0.9064 1.8839-1.648 2.0708-1.648 0.18692 0 0.18652 4.6124-9.92e-4 10.25-0.38812 11.678-0.61575 12.55-4.3029 16.486-7.8908 8.4228-29.54 15.572-57.42 18.963-6.9718 0.84793-42.388 1.539-49.152 0.95904h-1.5e-5z" fill="#b2b2b2" opacity=".59"/>
  <path d="m183.38 38.585l-69.762 4.5679c-4.297 18.721 32.318 295.36-52.874 276.33 153.03 45.193 115.06-124.91 122.64-280.9z" fill="url(#k)" opacity=".569"/>
  <path d="m186.3 321.86v17.25c-29.453 25.818-113.01 23.614-154.25 14.5 89.316 12.916 140.22-17.301 154.25-31.75z" fill="url(#l)"/>
 </g>
</svg>
